<?xml version="1.0" encoding="utf-8"?>
<!-- Generator: Adobe Illustrator 16.0.0, SVG Export Plug-In . SVG Version: 6.00 Build 0)  -->
<!DOCTYPE svg PUBLIC "-//W3C//DTD SVG 1.1//EN" "http://www.w3.org/Graphics/SVG/1.1/DTD/svg11.dtd">
<svg version="1.1" id="Слой_1" xmlns="http://www.w3.org/2000/svg" xmlns:xlink="http://www.w3.org/1999/xlink" x="0px" y="0px"
	 width="30.554px" height="33.924px" viewBox="0 0 30.554 33.924" enable-background="new 0 0 30.554 33.924" xml:space="preserve">
<line fill="none" stroke="#000000" stroke-miterlimit="10" x1="65.074" y1="5.687" x2="100.031" y2="40.687"/>
<line fill="none" stroke="#000000" stroke-miterlimit="10" x1="99.996" y1="5.325" x2="65.052" y2="40.325"/>
<path d="M26.511,4.724c-0.344-0.203-0.787-0.088-0.989,0.256L14.848,23.117L5.71,13.543c-0.178-0.187-0.473-0.217-0.687-0.06
	c-0.232,0.171-0.282,0.498-0.111,0.73l9.073,12.336c0.13,0.176,0.306,0.33,0.515,0.435c0.711,0.356,1.576,0.068,1.932-0.643
	l0.02-0.039L26.791,5.67C26.958,5.333,26.84,4.917,26.511,4.724z"/>
</svg>
